<svg width="250" height="250" viewBox="0 0 250 250" fill="none" xmlns="http://www.w3.org/2000/svg">
<path d="M55 78.101C55 78.101 58 53.2009 66 49.601C74 46.001 180 46.2676 185 49.601C190 52.9343 196 78.101 196 78.101L185 78.101L175.5 202.101H78L66 78.101L55 78.101Z" fill="#333333"/>
<path d="M66 78.101L78 202.101H175.5L185 78.101M55 78.101C55 78.101 58 53.2009 66 49.601C74 46.001 180 46.2676 185 49.601C190 52.9343 196 78.101 196 78.101H55Z" stroke="white"/>
<path d="M96 47H153.057C153.057 29 138.113 29 122.491 29H122.49C106.868 29 96 29 96 47Z" fill="#333333"/>
</svg>
